<svg width="478" height="478" viewBox="0 0 478 478" fill="none" xmlns="http://www.w3.org/2000/svg">
<path d="M326.406 77.2355C338.6 122.845 341.88 207.462 330.84 283.754C325.325 321.867 316.274 357.612 303.151 385.221C289.974 412.942 273.078 431.678 252.29 437.261C231.501 442.844 207.522 435.085 182.281 417.681C157.143 400.348 131.472 373.927 107.683 343.684C60.0628 283.146 20.6914 208.222 8.49797 162.612C2.35479 139.634 3.99887 127.367 9.32067 120.621C14.6883 113.818 24.9753 111.063 40.6085 110.483C48.2614 110.199 56.8397 110.437 66.2204 110.779C67.7805 110.835 69.3623 110.895 70.9641 110.955C78.9491 111.256 87.431 111.576 96.2055 111.657C117.288 111.852 140.343 110.68 163.33 104.507C186.318 98.3331 206.869 87.7948 225.029 77.0604C232.588 72.5928 239.774 68.0654 246.539 63.8033C247.896 62.9483 249.236 62.104 250.559 61.2729C258.513 56.2763 265.823 51.7711 272.592 48.1819C286.42 40.8502 296.703 38.0802 304.746 41.2823C312.72 44.4571 320.263 54.2568 326.406 77.2355Z" fill="black" stroke="white" stroke-width="8"/>
<path d="M473.965 163.724C449.083 256.797 312.357 466.421 219.495 441.482C126.633 416.543 112.799 166.485 137.682 73.4121C162.564 -19.6611 218.143 74.2445 311.006 99.1834C403.868 124.122 498.847 70.6506 473.965 163.724Z" fill="white"/>
<path fill-rule="evenodd" clip-rule="evenodd" d="M258.401 265.643L249.46 302.275L251.607 302.869L251.494 303.334L283.427 312.177L292.629 274.454L301.618 276.94L313.219 319.91L347.976 329.523L334.311 280.831C341.11 279.713 346.879 277.046 351.616 272.829C356.729 268.322 360.272 262.029 362.244 253.947C364.198 245.94 364.052 238.567 361.806 231.829C359.561 225.09 355.53 219.29 349.714 214.427C343.898 209.564 336.616 205.922 327.87 203.503L277.001 189.434L264.419 240.983L224.287 229.87L236.722 178.894L204.789 170.052L177.288 282.785L209.222 291.628L218.272 254.53L258.401 265.643ZM298.436 250.651L305.103 223.321L314.303 225.866C318.063 226.906 321.145 228.288 323.55 230.012C326.002 231.709 327.687 233.783 328.604 236.233C329.569 238.656 329.657 241.484 328.868 244.716C328.088 247.912 326.727 250.3 324.785 251.88C322.882 253.471 320.475 254.355 317.566 254.53C314.704 254.68 311.393 254.235 307.633 253.195L298.436 250.651Z" fill="black"/>
</svg>
