<svg width="478" height="478" viewBox="0 0 478 478" fill="none" xmlns="http://www.w3.org/2000/svg">
<path d="M326.406 77.2358C338.6 122.846 341.88 207.462 330.84 283.754C325.325 321.867 316.274 357.613 303.151 385.221C289.974 412.943 273.078 431.678 252.29 437.261C231.501 442.844 207.522 435.086 182.281 417.682C157.143 400.349 131.472 373.928 107.683 343.685C60.0628 283.147 20.6914 208.223 8.49797 162.613C2.35479 139.634 3.99887 127.367 9.32067 120.621C14.6883 113.818 24.9753 111.064 40.6085 110.483C48.2614 110.199 56.8397 110.437 66.2204 110.779C67.7805 110.836 69.3623 110.895 70.9641 110.956C78.9491 111.256 87.431 111.576 96.2055 111.657C117.288 111.853 140.343 110.68 163.33 104.507C186.318 98.3334 206.869 87.795 225.029 77.0606C232.588 72.5931 239.774 68.0657 246.539 63.8035C247.896 62.9485 249.236 62.1042 250.559 61.2732C258.513 56.2765 265.823 51.7713 272.592 48.1822C286.42 40.8504 296.703 38.0804 304.746 41.2826C312.72 44.4574 320.263 54.257 326.406 77.2358Z" fill="white" stroke="black" stroke-width="8"/>
<path d="M473.965 163.724C449.083 256.797 312.357 466.421 219.495 441.482C126.633 416.543 112.799 166.485 137.682 73.4123C162.564 -19.6609 218.143 74.2448 311.006 99.1836C403.868 124.123 498.847 70.6508 473.965 163.724Z" fill="black"/>
<path fill-rule="evenodd" clip-rule="evenodd" d="M258.401 265.643L249.46 302.275L251.607 302.869L251.494 303.334L283.427 312.177L292.629 274.455L301.618 276.941L313.219 319.91L347.976 329.523L334.311 280.831C341.11 279.713 346.879 277.046 351.616 272.829C356.729 268.323 360.272 262.029 362.244 253.948C364.198 245.94 364.052 238.567 361.806 231.829C359.561 225.091 355.53 219.29 349.714 214.427C343.898 209.564 336.616 205.923 327.87 203.503L277.001 189.434L264.419 240.983L224.287 229.87L236.722 178.895L204.789 170.052L177.288 282.785L209.222 291.628L218.272 254.531L258.401 265.643ZM298.436 250.651L305.103 223.322L314.303 225.866C318.063 226.906 321.145 228.288 323.55 230.012C326.002 231.71 327.687 233.783 328.604 236.233C329.569 238.656 329.657 241.484 328.868 244.717C328.088 247.912 326.727 250.3 324.785 251.881C322.882 253.472 320.475 254.355 317.566 254.531C314.704 254.68 311.393 254.235 307.633 253.195L298.436 250.651Z" fill="white"/>
</svg>
