<svg width="1024" height="1024" viewBox="0 0 1024 1024" fill="none" xmlns="http://www.w3.org/2000/svg">
<g clip-path="url(#clip0_17_70)">
<path fill-rule="evenodd" clip-rule="evenodd" d="M406.329 576.328L250.696 617.317C250.696 617.317 266.143 540.606 370.138 513.237C384.504 509.461 397.789 507.468 410.213 506.637C413.867 473.329 419.653 443.596 425.91 420.643C425.98 420.382 426.051 420.132 426.121 419.871C392.013 414.764 372.281 385.522 372.281 385.522L441.498 367.295C451.028 337.312 460.469 313.097 469.749 298.486C488.93 268.342 532.469 265.869 565.035 279.939C551.78 234.473 538.435 201.225 527.733 179.964C514.108 152.905 500.203 170.851 468.608 196.688C446.343 214.885 390.101 253.681 305.447 275.973C220.783 298.265 152.327 292.327 123.795 287.49C83.3101 280.64 62.1366 271.937 64.1288 302.061C65.8607 328.639 72.3279 369.859 87.1644 424.288C119.3 542.078 225.298 769.107 425.35 716.631C411.444 671.546 406.249 622.725 406.329 576.328ZM165.381 440.021L303.304 403.698C303.304 403.698 299.91 459.078 248.203 472.698C196.496 486.318 165.381 440.021 165.381 440.021Z" fill="#B30237"/>
<path fill-rule="evenodd" clip-rule="evenodd" d="M905.162 419.28C876.63 424.097 808.174 430.056 723.51 407.764C638.846 385.472 582.614 346.685 560.339 328.459C528.744 302.622 514.848 284.676 501.233 311.745C489.22 335.619 473.873 374.496 459.037 428.924C426.891 546.795 403.185 795.615 603.407 848.361C803.589 901.078 909.647 673.929 941.792 556.058C956.629 501.64 963.106 460.42 964.848 433.832C966.85 403.718 945.677 412.421 905.162 419.28ZM509.523 514.879C509.523 514.879 540.637 468.582 592.355 482.202C644.092 495.821 647.476 551.191 647.476 551.191L509.523 514.879ZM635.743 729.75C531.757 702.35 516.3 625.619 516.3 625.619L792.166 698.264C792.166 698.264 738.667 756.819 635.743 729.75ZM716.412 569.338C716.412 569.338 747.537 523.051 799.234 536.69C850.952 550.3 854.355 605.66 854.355 605.66L716.412 569.338Z" fill="#FF7E07"/>
</g>
<defs>
<clipPath id="clip0_17_70">
<rect width="901" height="691" fill="white" transform="translate(64 166.5)"/>
</clipPath>
</defs>
</svg>
