<svg width="478" height="478" viewBox="0 0 478 478" fill="none" xmlns="http://www.w3.org/2000/svg">
<path d="M330.269 76.1986C355.02 168.778 343.244 416.977 253.323 441.126C163.401 465.275 29.3852 256.23 4.63486 163.65C-20.1155 71.0708 72.3758 124.792 162.297 100.643C252.219 76.4936 305.519 -16.381 330.269 76.1986Z" fill="#F7A830"/>
<path d="M473.965 163.724C449.083 256.797 312.357 466.421 219.495 441.482C126.633 416.543 112.799 166.486 137.682 73.4126C162.564 -19.6606 218.143 74.245 311.006 99.1839C403.868 124.123 498.847 70.6511 473.965 163.724Z" fill="#A60000"/>
<path fill-rule="evenodd" clip-rule="evenodd" d="M258.401 265.643L249.46 302.276L251.607 302.87L251.494 303.334L283.427 312.177L292.629 274.455L301.618 276.941L313.219 319.91L347.976 329.523L334.311 280.832C341.11 279.713 346.879 277.046 351.616 272.83C356.729 268.323 360.272 262.029 362.244 253.948C364.198 245.94 364.052 238.567 361.806 231.829C359.561 225.091 355.53 219.29 349.714 214.427C343.898 209.564 336.616 205.923 327.87 203.504L277.001 189.434L264.419 240.984L224.287 229.87L236.722 178.895L204.789 170.052L177.288 282.785L209.222 291.628L218.272 254.531L258.401 265.643ZM298.436 250.652L305.103 223.322L314.303 225.867C318.063 226.906 321.145 228.288 323.55 230.012C326.002 231.71 327.687 233.783 328.604 236.233C329.569 238.657 329.657 241.484 328.868 244.717C328.088 247.913 326.727 250.301 324.785 251.881C322.882 253.472 320.475 254.355 317.566 254.531C314.704 254.68 311.393 254.235 307.633 253.195L298.436 250.652Z" fill="white"/>
</svg>
