<svg width="2001" height="478" viewBox="0 0 2001 478" fill="none" xmlns="http://www.w3.org/2000/svg">
<g clip-path="url(#clip0_88_574)">
<path d="M1724.45 226.053V96.0901H1828.74V126.724H1760.01V146.404H1822.25V174.811H1760.01V195.419H1829.66V226.053H1724.45Z" fill="white"/>
<path d="M1654.55 228.281C1631.58 228.281 1609.72 221.04 1593.79 206.745L1613.79 182.794C1626.57 193.006 1640.84 198.39 1655.84 198.39C1665.47 198.39 1670.66 195.048 1670.66 189.478V189.107C1670.66 183.722 1666.4 180.752 1648.8 176.667C1621.2 170.355 1599.9 162.557 1599.9 135.822V135.45C1599.9 111.314 1618.98 93.8622 1650.1 93.8622C1672.14 93.8622 1689.37 99.8034 1703.45 111.129L1685.48 136.564C1673.63 128.21 1660.66 123.754 1649.17 123.754C1640.47 123.754 1636.21 127.467 1636.21 132.109V132.48C1636.21 138.421 1640.65 141.02 1658.62 145.105C1688.44 151.603 1706.97 161.257 1706.97 185.579V185.95C1706.97 212.5 1686.04 228.281 1654.55 228.281Z" fill="white"/>
<path d="M1515.77 228.652C1475.76 228.652 1446.12 198.761 1446.12 161.443V161.072C1446.12 123.754 1476.13 93.4907 1516.14 93.4907C1556.15 93.4907 1585.79 123.382 1585.79 160.7V161.072C1585.79 198.39 1555.78 228.652 1515.77 228.652ZM1516.14 196.162C1535.96 196.162 1549.11 180.195 1549.11 161.443V161.072C1549.11 142.32 1535.59 125.982 1515.77 125.982C1496.13 125.982 1482.98 141.948 1482.98 160.7V161.072C1482.98 179.823 1496.5 196.162 1516.14 196.162Z" fill="white"/>
<path d="M1343.83 226.053V96.0901H1379.77V194.491H1442.57V226.053H1343.83Z" fill="white"/>
<path d="M1220.28 226.053V96.0901H1324.57V126.724H1255.84V146.404H1318.08V174.811H1255.84V195.419H1325.49V226.053H1220.28Z" fill="white"/>
<path d="M1144.04 228.652C1103.66 228.652 1073.46 200.803 1073.46 161.443V161.072C1073.46 123.197 1103.1 93.4907 1143.3 93.4907C1166.08 93.4907 1182.2 100.546 1195.91 112.428L1174.79 137.864C1165.53 130.066 1156.26 125.61 1143.48 125.61C1124.77 125.61 1110.33 141.391 1110.33 161.257V161.629C1110.33 182.608 1124.96 197.647 1145.52 197.647C1154.23 197.647 1160.9 195.79 1166.27 192.263V176.481H1140.7V150.118H1200.35V208.601C1186.64 219.926 1167.56 228.652 1144.04 228.652Z" fill="white"/>
<path d="M932.465 226.053V96.0901H965.994L1019.34 164.785V96.0901H1054.91V226.053H1023.42L968.031 154.759V226.053H932.465Z" fill="white"/>
<path d="M808.911 226.053V96.0901H913.202V126.724H844.477V146.404H906.718V174.811H844.477V195.419H914.128V226.053H808.911Z" fill="white"/>
<path d="M667.991 226.053V96.0901H703.927V144.733H750.052V96.0901H785.989V226.053H750.052V176.667H703.927V226.053H667.991Z" fill="white"/>
<path d="M1220.28 383.009V254.716H1323.23V284.957H1255.39V304.384H1316.83V332.425H1255.39V352.769H1324.14V383.009H1220.28Z" fill="white"/>
<path d="M1140.37 385.392C1103.98 385.392 1081.13 366.881 1081.13 326.744V254.716H1117.15V326.01C1117.15 344.521 1126.48 353.319 1140.74 353.319C1155 353.319 1164.33 344.888 1164.33 326.927V254.716H1200.35V325.827C1200.35 367.248 1176.76 385.392 1140.37 385.392Z" fill="white"/>
<path d="M977.831 383.926L925.898 254.716H965.579L994.654 335.907L1023.73 254.716H1062.68L1010.75 383.926H977.831Z" fill="white"/>
<path d="M806.858 383.009V254.716H909.808V284.957H841.967V304.384H903.408V332.425H841.967V352.769H910.722V383.009H806.858Z" fill="white"/>
<path d="M668.112 383.009V254.716H728.639C748.205 254.716 761.737 259.848 770.331 268.645C777.828 275.976 781.668 285.873 781.668 298.519V298.886C781.668 318.496 771.245 331.509 755.337 338.29L785.874 383.009H744.913L719.13 344.155H718.764H703.587V383.009H668.112ZM703.587 316.297H726.993C739.062 316.297 746.011 310.432 746.011 301.085V300.718C746.011 290.638 738.696 285.506 726.81 285.506H703.587V316.297Z" fill="white"/>
<path d="M424.769 76.1986C449.52 168.778 437.744 416.977 347.823 441.126C257.901 465.275 123.885 256.23 99.1349 163.65C74.3845 71.0708 166.876 124.792 256.797 100.643C346.719 76.4936 400.019 -16.381 424.769 76.1986Z" fill="#F7A830"/>
<path d="M568.465 163.724C543.583 256.797 406.857 466.421 313.995 441.482C221.133 416.543 207.299 166.486 232.182 73.4125C257.064 -19.6606 312.643 74.245 405.506 99.1839C498.368 124.123 593.347 70.6511 568.465 163.724Z" fill="#A60000"/>
<path fill-rule="evenodd" clip-rule="evenodd" d="M352.901 265.643L343.96 302.276L346.107 302.87L345.994 303.334L377.927 312.177L387.129 274.455L396.118 276.941L407.719 319.91L442.476 329.523L428.811 280.831C435.61 279.713 441.379 277.046 446.116 272.83C451.229 268.323 454.772 262.029 456.744 253.948C458.698 245.94 458.552 238.567 456.306 231.829C454.061 225.091 450.03 219.29 444.214 214.427C438.398 209.564 431.116 205.923 422.37 203.504L371.501 189.434L358.919 240.984L318.787 229.87L331.222 178.895L299.289 170.052L271.788 282.785L303.722 291.628L312.772 254.531L352.901 265.643ZM392.936 250.652L399.603 223.322L408.803 225.866C412.563 226.906 415.645 228.288 418.05 230.012C420.502 231.71 422.187 233.783 423.104 236.233C424.069 238.657 424.157 241.484 423.368 244.717C422.588 247.913 421.227 250.301 419.285 251.881C417.382 253.472 414.975 254.355 412.066 254.531C409.204 254.68 405.893 254.235 402.133 253.195L392.936 250.652Z" fill="white"/>
</g>
<defs>
<clipPath id="clip0_88_574">
<rect width="2000" height="477.273" fill="white" transform="translate(0.5)"/>
</clipPath>
</defs>
</svg>
