<svg width="2000" height="478" viewBox="0 0 2000 478" fill="none" xmlns="http://www.w3.org/2000/svg">
<g clip-path="url(#clip0_88_524)">
<path d="M1723.95 226.053V96.0901H1828.24V126.724H1759.51V146.404H1821.75V174.811H1759.51V195.419H1829.16V226.053H1723.95Z" fill="black"/>
<path d="M1654.05 228.281C1631.08 228.281 1609.22 221.04 1593.29 206.745L1613.29 182.794C1626.07 193.006 1640.34 198.39 1655.34 198.39C1664.97 198.39 1670.16 195.048 1670.16 189.478V189.107C1670.16 183.722 1665.9 180.752 1648.3 176.667C1620.7 170.355 1599.4 162.557 1599.4 135.822V135.45C1599.4 111.314 1618.48 93.8622 1649.6 93.8622C1671.64 93.8622 1688.87 99.8034 1702.95 111.129L1684.98 136.564C1673.13 128.21 1660.16 123.754 1648.67 123.754C1639.97 123.754 1635.71 127.467 1635.71 132.109V132.48C1635.71 138.421 1640.15 141.02 1658.12 145.105C1687.94 151.603 1706.47 161.257 1706.47 185.579V185.95C1706.47 212.5 1685.54 228.281 1654.05 228.281Z" fill="black"/>
<path d="M1515.27 228.652C1475.26 228.652 1445.62 198.761 1445.62 161.443V161.072C1445.62 123.754 1475.63 93.4907 1515.64 93.4907C1555.65 93.4907 1585.29 123.382 1585.29 160.7V161.072C1585.29 198.39 1555.28 228.652 1515.27 228.652ZM1515.64 196.162C1535.46 196.162 1548.61 180.195 1548.61 161.443V161.072C1548.61 142.32 1535.09 125.982 1515.27 125.982C1495.63 125.982 1482.48 141.948 1482.48 160.7V161.072C1482.48 179.823 1496 196.162 1515.64 196.162Z" fill="black"/>
<path d="M1343.33 226.053V96.0901H1379.27V194.491H1442.07V226.053H1343.33Z" fill="black"/>
<path d="M1219.78 226.053V96.0901H1324.07V126.724H1255.34V146.404H1317.58V174.811H1255.34V195.419H1324.99V226.053H1219.78Z" fill="black"/>
<path d="M1143.54 228.652C1103.16 228.652 1072.96 200.803 1072.96 161.443V161.072C1072.96 123.197 1102.6 93.4907 1142.8 93.4907C1165.58 93.4907 1181.7 100.546 1195.41 112.428L1174.29 137.864C1165.03 130.066 1155.76 125.61 1142.98 125.61C1124.27 125.61 1109.83 141.391 1109.83 161.257V161.629C1109.83 182.608 1124.46 197.647 1145.02 197.647C1153.73 197.647 1160.4 195.79 1165.77 192.263V176.481H1140.2V150.118H1199.85V208.601C1186.14 219.926 1167.06 228.652 1143.54 228.652Z" fill="black"/>
<path d="M931.965 226.053V96.0901H965.494L1018.84 164.785V96.0901H1054.41V226.053H1022.92L967.531 154.759V226.053H931.965Z" fill="black"/>
<path d="M808.411 226.053V96.0901H912.702V126.724H843.977V146.404H906.218V174.811H843.977V195.419H913.628V226.053H808.411Z" fill="black"/>
<path d="M667.491 226.053V96.0901H703.427V144.733H749.552V96.0901H785.489V226.053H749.552V176.667H703.427V226.053H667.491Z" fill="black"/>
<path d="M1219.78 383.009V254.716H1322.73V284.957H1254.89V304.384H1316.33V332.425H1254.89V352.769H1323.64V383.009H1219.78Z" fill="black"/>
<path d="M1139.87 385.392C1103.48 385.392 1080.63 366.881 1080.63 326.744V254.716H1116.65V326.01C1116.65 344.521 1125.98 353.319 1140.24 353.319C1154.5 353.319 1163.83 344.888 1163.83 326.927V254.716H1199.85V325.827C1199.85 367.248 1176.26 385.392 1139.87 385.392Z" fill="black"/>
<path d="M977.331 383.926L925.398 254.716H965.079L994.154 335.907L1023.23 254.716H1062.18L1010.25 383.926H977.331Z" fill="black"/>
<path d="M806.358 383.009V254.716H909.308V284.957H841.467V304.384H902.908V332.425H841.467V352.769H910.222V383.009H806.358Z" fill="black"/>
<path d="M667.612 383.009V254.716H728.139C747.705 254.716 761.237 259.848 769.831 268.645C777.328 275.976 781.168 285.873 781.168 298.519V298.886C781.168 318.496 770.745 331.509 754.837 338.29L785.374 383.009H744.413L718.63 344.155H718.264H703.087V383.009H667.612ZM703.087 316.297H726.493C738.562 316.297 745.511 310.432 745.511 301.085V300.718C745.511 290.638 738.196 285.506 726.31 285.506H703.087V316.297Z" fill="black"/>
<path d="M424.269 76.1986C449.02 168.778 437.244 416.977 347.323 441.126C257.401 465.275 123.385 256.23 98.6349 163.65C73.8845 71.0708 166.376 124.792 256.297 100.643C346.219 76.4936 399.519 -16.381 424.269 76.1986Z" fill="#F7A830"/>
<path d="M567.965 163.724C543.083 256.797 406.357 466.421 313.495 441.482C220.633 416.543 206.799 166.486 231.682 73.4126C256.564 -19.6606 312.143 74.245 405.006 99.1839C497.868 124.123 592.847 70.6511 567.965 163.724Z" fill="#A60000"/>
<path fill-rule="evenodd" clip-rule="evenodd" d="M352.401 265.643L343.46 302.276L345.607 302.87L345.494 303.334L377.427 312.177L386.629 274.455L395.618 276.941L407.219 319.91L441.976 329.523L428.311 280.832C435.11 279.713 440.879 277.046 445.616 272.83C450.729 268.323 454.272 262.029 456.244 253.948C458.198 245.94 458.052 238.567 455.806 231.829C453.561 225.091 449.53 219.29 443.714 214.427C437.898 209.564 430.616 205.923 421.87 203.504L371.001 189.434L358.419 240.984L318.287 229.87L330.722 178.895L298.789 170.052L271.288 282.785L303.222 291.628L312.272 254.531L352.401 265.643ZM392.436 250.652L399.103 223.322L408.303 225.867C412.063 226.906 415.145 228.288 417.55 230.012C420.002 231.71 421.687 233.783 422.604 236.233C423.569 238.657 423.657 241.484 422.868 244.717C422.088 247.913 420.727 250.301 418.785 251.881C416.882 253.472 414.475 254.355 411.566 254.531C408.704 254.68 405.393 254.235 401.633 253.195L392.436 250.652Z" fill="white"/>
</g>
<defs>
<clipPath id="clip0_88_524">
<rect width="2000" height="477.273" fill="white"/>
</clipPath>
</defs>
</svg>
