<svg width="2000" height="478" viewBox="0 0 2000 478" fill="none" xmlns="http://www.w3.org/2000/svg">
<g clip-path="url(#clip0_88_599)">
<path d="M1723.95 226.053V96.0897H1828.24V126.724H1759.51V146.404H1821.75V174.81H1759.51V195.419H1829.16V226.053H1723.95Z" fill="white"/>
<path d="M1654.05 228.281C1631.08 228.281 1609.22 221.04 1593.29 206.744L1613.29 182.794C1626.07 193.005 1640.34 198.389 1655.34 198.389C1664.97 198.389 1670.16 195.047 1670.16 189.477V189.106C1670.16 183.722 1665.9 180.751 1648.3 176.667C1620.7 170.354 1599.4 162.557 1599.4 135.821V135.45C1599.4 111.314 1618.48 93.8618 1649.6 93.8618C1671.64 93.8618 1688.87 99.8029 1702.95 111.128L1684.98 136.564C1673.13 128.209 1660.16 123.753 1648.67 123.753C1639.97 123.753 1635.71 127.467 1635.71 132.108V132.479C1635.71 138.421 1640.15 141.02 1658.12 145.104C1687.94 151.603 1706.47 161.257 1706.47 185.579V185.95C1706.47 212.5 1685.54 228.281 1654.05 228.281Z" fill="white"/>
<path d="M1515.27 228.652C1475.26 228.652 1445.62 198.76 1445.62 161.442V161.071C1445.62 123.753 1475.63 93.4902 1515.64 93.4902C1555.65 93.4902 1585.29 123.382 1585.29 160.7V161.071C1585.29 198.389 1555.28 228.652 1515.27 228.652ZM1515.64 196.161C1535.46 196.161 1548.61 180.194 1548.61 161.442V161.071C1548.61 142.319 1535.09 125.981 1515.27 125.981C1495.63 125.981 1482.48 141.948 1482.48 160.7V161.071C1482.48 179.823 1496 196.161 1515.64 196.161Z" fill="white"/>
<path d="M1343.33 226.053V96.0897H1379.27V194.49H1442.07V226.053H1343.33Z" fill="white"/>
<path d="M1219.78 226.053V96.0897H1324.07V126.724H1255.34V146.404H1317.58V174.81H1255.34V195.419H1324.99V226.053H1219.78Z" fill="white"/>
<path d="M1143.54 228.652C1103.16 228.652 1072.96 200.803 1072.96 161.442V161.071C1072.96 123.196 1102.6 93.4902 1142.8 93.4902C1165.58 93.4902 1181.7 100.545 1195.41 112.428L1174.29 137.863C1165.03 130.066 1155.76 125.61 1142.98 125.61C1124.27 125.61 1109.83 141.391 1109.83 161.257V161.628C1109.83 182.608 1124.46 197.646 1145.02 197.646C1153.73 197.646 1160.4 195.79 1165.77 192.262V176.481H1140.2V150.117H1199.85V208.6C1186.14 219.926 1167.06 228.652 1143.54 228.652Z" fill="white"/>
<path d="M931.965 226.053V96.0897H965.494L1018.84 164.784V96.0897H1054.41V226.053H1022.92L967.531 154.759V226.053H931.965Z" fill="white"/>
<path d="M808.411 226.053V96.0897H912.702V126.724H843.977V146.404H906.218V174.81H843.977V195.419H913.628V226.053H808.411Z" fill="white"/>
<path d="M667.491 226.053V96.0897H703.427V144.733H749.552V96.0897H785.489V226.053H749.552V176.667H703.427V226.053H667.491Z" fill="white"/>
<path d="M1219.78 383.009V254.715H1322.73V284.956H1254.89V304.383H1316.33V332.425H1254.89V352.768H1323.64V383.009H1219.78Z" fill="white"/>
<path d="M1139.87 385.391C1103.48 385.391 1080.63 366.881 1080.63 326.743V254.715H1116.65V326.01C1116.65 344.521 1125.98 353.318 1140.24 353.318C1154.5 353.318 1163.83 344.887 1163.83 326.926V254.715H1199.85V325.827C1199.85 367.247 1176.26 385.391 1139.87 385.391Z" fill="white"/>
<path d="M977.331 383.925L925.398 254.715H965.079L994.154 335.907L1023.23 254.715H1062.18L1010.25 383.925H977.331Z" fill="white"/>
<path d="M806.358 383.009V254.715H909.308V284.956H841.467V304.383H902.908V332.425H841.467V352.768H910.222V383.009H806.358Z" fill="white"/>
<path d="M667.612 383.009V254.715H728.139C747.705 254.715 761.237 259.847 769.831 268.644C777.328 275.976 781.168 285.872 781.168 298.518V298.885C781.168 318.496 770.745 331.508 754.837 338.289L785.374 383.009H744.413L718.63 344.154H718.264H703.087V383.009H667.612ZM703.087 316.296H726.493C738.562 316.296 745.511 310.431 745.511 301.084V300.718C745.511 290.638 738.196 285.506 726.31 285.506H703.087V316.296Z" fill="white"/>
<path d="M420.406 77.2355C432.6 122.845 435.88 207.462 424.84 283.754C419.325 321.867 410.274 357.612 397.151 385.221C383.974 412.942 367.078 431.678 346.29 437.261C325.501 442.844 301.522 435.085 276.281 417.681C251.143 400.348 225.472 373.927 201.683 343.684C154.063 283.146 114.691 208.222 102.498 162.612C96.3548 139.634 97.9989 127.367 103.321 120.621C108.688 113.818 118.975 111.063 134.608 110.483C142.261 110.199 150.84 110.437 160.22 110.779C161.781 110.835 163.362 110.895 164.964 110.955C172.949 111.256 181.431 111.576 190.205 111.657C211.288 111.852 234.343 110.68 257.33 104.507C280.318 98.3331 300.869 87.7948 319.029 77.0604C326.588 72.5928 333.774 68.0654 340.539 63.8033C341.896 62.9483 343.236 62.104 344.559 61.2729C352.513 56.2763 359.823 51.7711 366.592 48.1819C380.42 40.8502 390.703 38.0802 398.746 41.2823C406.72 44.4571 414.263 54.2568 420.406 77.2355Z" fill="black" stroke="white" stroke-width="8"/>
<path d="M567.965 163.724C543.083 256.797 406.357 466.421 313.495 441.482C220.633 416.543 206.799 166.485 231.682 73.4121C256.564 -19.6611 312.143 74.2445 405.006 99.1834C497.868 124.122 592.847 70.6506 567.965 163.724Z" fill="white"/>
<path fill-rule="evenodd" clip-rule="evenodd" d="M352.401 265.643L343.46 302.275L345.607 302.869L345.494 303.334L377.427 312.177L386.629 274.454L395.618 276.94L407.219 319.91L441.976 329.523L428.311 280.831C435.11 279.713 440.879 277.046 445.616 272.829C450.729 268.322 454.272 262.029 456.244 253.947C458.198 245.94 458.052 238.567 455.806 231.829C453.561 225.09 449.53 219.29 443.714 214.427C437.898 209.564 430.616 205.922 421.87 203.503L371.001 189.434L358.419 240.983L318.287 229.87L330.722 178.894L298.789 170.052L271.288 282.785L303.222 291.628L312.272 254.53L352.401 265.643ZM392.436 250.651L399.103 223.321L408.303 225.866C412.063 226.906 415.145 228.288 417.55 230.012C420.002 231.709 421.687 233.783 422.604 236.233C423.569 238.656 423.657 241.484 422.868 244.716C422.088 247.912 420.727 250.3 418.785 251.88C416.882 253.471 414.475 254.355 411.566 254.53C408.704 254.68 405.393 254.235 401.633 253.195L392.436 250.651Z" fill="black"/>
</g>
<defs>
<clipPath id="clip0_88_599">
<rect width="2000" height="477.273" fill="white" transform="translate(0 -0.000488281)"/>
</clipPath>
</defs>
</svg>
