<svg width="486" height="128" viewBox="0 0 486 128" fill="none" xmlns="http://www.w3.org/2000/svg">
<rect width="355.585" height="56" transform="translate(114.111 24)" fill="white"/>
<path d="M464.815 79.96H448.111C447.655 79.96 447.319 79.864 447.103 79.672C446.911 79.456 446.815 79.12 446.815 78.664V55.336C446.815 54.88 446.911 54.556 447.103 54.364C447.319 54.148 447.655 54.04 448.111 54.04H464.815C465.271 54.04 465.595 54.148 465.787 54.364C466.003 54.556 466.111 54.88 466.111 55.336V59.548C466.111 60.004 466.003 60.34 465.787 60.556C465.595 60.748 465.271 60.844 464.815 60.844H454.879V63.616H461.899C462.355 63.616 462.679 63.724 462.871 63.94C463.087 64.132 463.195 64.456 463.195 64.912V68.764C463.195 69.22 463.087 69.556 462.871 69.772C462.679 69.964 462.355 70.06 461.899 70.06H454.879V73.156H464.815C465.271 73.156 465.595 73.264 465.787 73.48C466.003 73.672 466.111 73.996 466.111 74.452V78.664C466.111 79.12 466.003 79.456 465.787 79.672C465.595 79.864 465.271 79.96 464.815 79.96Z" fill="black"/>
<path d="M443.824 73.156C443.824 74.26 443.656 75.268 443.32 76.18C443.008 77.068 442.432 77.836 441.592 78.484C440.776 79.108 439.648 79.6 438.208 79.96C436.768 80.32 434.932 80.5 432.7 80.5C430.468 80.5 428.632 80.32 427.192 79.96C425.752 79.6 424.612 79.108 423.772 78.484C422.956 77.836 422.38 77.068 422.044 76.18C421.732 75.268 421.576 74.26 421.576 73.156V55.336C421.576 54.88 421.672 54.556 421.864 54.364C422.08 54.148 422.416 54.04 422.872 54.04H428.524C428.98 54.04 429.304 54.148 429.496 54.364C429.712 54.556 429.82 54.88 429.82 55.336V71.752C429.82 72.232 430 72.64 430.36 72.976C430.72 73.288 431.524 73.444 432.772 73.444C434.044 73.444 434.86 73.288 435.22 72.976C435.58 72.64 435.76 72.232 435.76 71.752V55.336C435.76 54.88 435.856 54.556 436.048 54.364C436.264 54.148 436.6 54.04 437.056 54.04H442.528C442.984 54.04 443.308 54.148 443.5 54.364C443.716 54.556 443.824 54.88 443.824 55.336V73.156Z" fill="black"/>
<path d="M412.595 79.96H403.235C402.779 79.96 402.395 79.876 402.083 79.708C401.795 79.54 401.567 79.228 401.399 78.772L397.871 69.952C397.655 69.424 397.475 68.968 397.331 68.584C397.187 68.176 397.067 67.792 396.971 67.432C396.875 67.072 396.803 66.7 396.755 66.316C396.731 65.908 396.719 65.416 396.719 64.84V55.336C396.719 54.88 396.815 54.556 397.007 54.364C397.223 54.148 397.559 54.04 398.015 54.04H403.739C404.195 54.04 404.543 54.148 404.783 54.364C405.023 54.556 405.143 54.88 405.143 55.336V65.272C405.143 65.512 405.167 65.752 405.215 65.992C405.263 66.232 405.335 66.484 405.431 66.748L407.123 71.788C407.195 72.028 407.279 72.196 407.375 72.292C407.471 72.364 407.615 72.4 407.807 72.4H408.203C408.395 72.4 408.539 72.364 408.635 72.292C408.731 72.196 408.815 72.028 408.887 71.788L410.579 66.712C410.675 66.448 410.747 66.196 410.795 65.956C410.843 65.716 410.867 65.476 410.867 65.236V55.336C410.867 54.88 410.963 54.556 411.155 54.364C411.371 54.148 411.707 54.04 412.163 54.04H417.815C418.271 54.04 418.595 54.148 418.787 54.364C419.003 54.556 419.111 54.88 419.111 55.336V64.84C419.111 65.416 419.087 65.908 419.039 66.316C419.015 66.7 418.955 67.072 418.859 67.432C418.763 67.792 418.643 68.176 418.499 68.584C418.355 68.968 418.175 69.424 417.959 69.952L414.431 78.772C414.263 79.228 414.023 79.54 413.711 79.708C413.423 79.876 413.051 79.96 412.595 79.96Z" fill="black"/>
<path d="M393.504 79.96H376.8C376.344 79.96 376.008 79.864 375.792 79.672C375.6 79.456 375.504 79.12 375.504 78.664V55.336C375.504 54.88 375.6 54.556 375.792 54.364C376.008 54.148 376.344 54.04 376.8 54.04H393.504C393.96 54.04 394.284 54.148 394.476 54.364C394.692 54.556 394.8 54.88 394.8 55.336V59.548C394.8 60.004 394.692 60.34 394.476 60.556C394.284 60.748 393.96 60.844 393.504 60.844H383.568V63.616H390.588C391.044 63.616 391.368 63.724 391.56 63.94C391.776 64.132 391.884 64.456 391.884 64.912V68.764C391.884 69.22 391.776 69.556 391.56 69.772C391.368 69.964 391.044 70.06 390.588 70.06H383.568V73.156H393.504C393.96 73.156 394.284 73.264 394.476 73.48C394.692 73.672 394.8 73.996 394.8 74.452V78.664C394.8 79.12 394.692 79.456 394.476 79.672C394.284 79.864 393.96 79.96 393.504 79.96Z" fill="black"/>
<path d="M358.686 60.52V65.128H361.386C362.01 65.128 362.43 64.972 362.646 64.66C362.862 64.324 362.97 63.916 362.97 63.436V62.212C362.97 61.732 362.862 61.336 362.646 61.024C362.43 60.688 362.01 60.52 361.386 60.52H358.686ZM357.39 79.96H351.846C351.39 79.96 351.054 79.864 350.838 79.672C350.646 79.456 350.55 79.12 350.55 78.664V55.336C350.55 54.88 350.646 54.556 350.838 54.364C351.054 54.148 351.39 54.04 351.846 54.04H363.834C366.522 54.04 368.37 54.604 369.378 55.732C370.41 56.836 370.926 58.276 370.926 60.052V61.708C370.926 62.716 370.77 63.58 370.458 64.3C370.17 64.996 369.654 65.5 368.91 65.812C370.206 65.956 371.25 66.484 372.042 67.396C372.858 68.308 373.266 69.52 373.266 71.032V78.664C373.266 79.12 373.158 79.456 372.942 79.672C372.75 79.864 372.426 79.96 371.97 79.96H366.39C365.934 79.96 365.598 79.864 365.382 79.672C365.19 79.456 365.094 79.12 365.094 78.664V73.156C365.094 72.628 364.986 72.244 364.77 72.004C364.578 71.74 364.23 71.608 363.726 71.608H358.686V78.664C358.686 79.12 358.578 79.456 358.362 79.672C358.17 79.864 357.846 79.96 357.39 79.96Z" fill="black"/>
<path d="M340.51 79.96H323.806C323.35 79.96 323.014 79.864 322.798 79.672C322.606 79.456 322.51 79.12 322.51 78.664V55.336C322.51 54.88 322.606 54.556 322.798 54.364C323.014 54.148 323.35 54.04 323.806 54.04H340.51C340.966 54.04 341.29 54.148 341.482 54.364C341.698 54.556 341.806 54.88 341.806 55.336V59.548C341.806 60.004 341.698 60.34 341.482 60.556C341.29 60.748 340.966 60.844 340.51 60.844H330.574V63.616H337.594C338.05 63.616 338.374 63.724 338.566 63.94C338.782 64.132 338.89 64.456 338.89 64.912V68.764C338.89 69.22 338.782 69.556 338.566 69.772C338.374 69.964 338.05 70.06 337.594 70.06H330.574V73.156H340.51C340.966 73.156 341.29 73.264 341.482 73.48C341.698 73.672 341.806 73.996 341.806 74.452V78.664C341.806 79.12 341.698 79.456 341.482 79.672C341.29 79.864 340.966 79.96 340.51 79.96Z" fill="black"/>
<path d="M312.919 79.96H301.543C301.087 79.96 300.751 79.864 300.535 79.672C300.343 79.456 300.247 79.12 300.247 78.664V74.452C300.247 73.996 300.343 73.672 300.535 73.48C300.751 73.264 301.087 73.156 301.543 73.156H311.227C311.539 73.156 311.767 73.06 311.911 72.868C312.079 72.652 312.163 72.4 312.163 72.112C312.163 71.704 312.079 71.404 311.911 71.212C311.767 71.02 311.539 70.912 311.227 70.888L305.827 70.132C304.147 69.892 302.791 69.34 301.759 68.476C300.751 67.612 300.247 66.172 300.247 64.156V60.376C300.247 58.336 300.907 56.776 302.227 55.696C303.547 54.592 305.371 54.04 307.699 54.04H317.779C318.235 54.04 318.559 54.148 318.751 54.364C318.967 54.556 319.075 54.88 319.075 55.336V59.62C319.075 60.076 318.967 60.412 318.751 60.628C318.559 60.82 318.235 60.916 317.779 60.916H309.391C309.079 60.916 308.839 61.024 308.671 61.24C308.503 61.432 308.419 61.684 308.419 61.996C308.419 62.308 308.503 62.572 308.671 62.788C308.839 63.004 309.079 63.124 309.391 63.148L314.755 63.868C316.435 64.108 317.791 64.66 318.823 65.524C319.855 66.388 320.371 67.828 320.371 69.844V73.624C320.371 75.664 319.699 77.236 318.355 78.34C317.035 79.42 315.223 79.96 312.919 79.96Z" fill="black"/>
<path d="M298.112 73.156C298.112 74.26 297.944 75.268 297.608 76.18C297.296 77.068 296.72 77.836 295.88 78.484C295.064 79.108 293.924 79.6 292.46 79.96C291.02 80.32 289.184 80.5 286.952 80.5C284.72 80.5 282.872 80.32 281.408 79.96C279.944 79.6 278.792 79.108 277.952 78.484C277.136 77.836 276.56 77.068 276.224 76.18C275.912 75.268 275.756 74.26 275.756 73.156V60.88C275.756 59.776 275.912 58.78 276.224 57.892C276.56 56.98 277.136 56.2 277.952 55.552C278.792 54.904 279.944 54.4 281.408 54.04C282.872 53.68 284.72 53.5 286.952 53.5C289.184 53.5 291.02 53.68 292.46 54.04C293.924 54.4 295.064 54.904 295.88 55.552C296.72 56.2 297.296 56.98 297.608 57.892C297.944 58.78 298.112 59.776 298.112 60.88V73.156ZM283.928 71.86C283.928 72.34 284.108 72.748 284.468 73.084C284.828 73.396 285.656 73.552 286.952 73.552C288.248 73.552 289.076 73.396 289.436 73.084C289.796 72.748 289.976 72.34 289.976 71.86V62.176C289.976 61.72 289.796 61.336 289.436 61.024C289.076 60.688 288.248 60.52 286.952 60.52C285.656 60.52 284.828 60.688 284.468 61.024C284.108 61.336 283.928 61.72 283.928 62.176V71.86Z" fill="black"/>
<path d="M272.541 79.96H254.217C253.761 79.96 253.425 79.864 253.209 79.672C253.017 79.456 252.921 79.12 252.921 78.664V55.336C252.921 54.88 253.017 54.556 253.209 54.364C253.425 54.148 253.761 54.04 254.217 54.04H259.797C260.253 54.04 260.577 54.148 260.769 54.364C260.985 54.556 261.093 54.88 261.093 55.336V73.156H266.025V67.324C266.025 66.868 266.121 66.544 266.313 66.352C266.529 66.136 266.865 66.028 267.321 66.028H272.541C272.997 66.028 273.321 66.136 273.513 66.352C273.729 66.544 273.837 66.868 273.837 67.324V78.664C273.837 79.12 273.729 79.456 273.513 79.672C273.321 79.864 272.997 79.96 272.541 79.96Z" fill="black"/>
<path d="M249.167 79.96H232.463C232.007 79.96 231.671 79.864 231.455 79.672C231.263 79.456 231.167 79.12 231.167 78.664V55.336C231.167 54.88 231.263 54.556 231.455 54.364C231.671 54.148 232.007 54.04 232.463 54.04H249.167C249.623 54.04 249.947 54.148 250.139 54.364C250.355 54.556 250.463 54.88 250.463 55.336V59.548C250.463 60.004 250.355 60.34 250.139 60.556C249.947 60.748 249.623 60.844 249.167 60.844H239.231V63.616H246.251C246.707 63.616 247.031 63.724 247.223 63.94C247.439 64.132 247.547 64.456 247.547 64.912V68.764C247.547 69.22 247.439 69.556 247.223 69.772C247.031 69.964 246.707 70.06 246.251 70.06H239.231V73.156H249.167C249.623 73.156 249.947 73.264 250.139 73.48C250.355 73.672 250.463 73.996 250.463 74.452V78.664C250.463 79.12 250.355 79.456 250.139 79.672C249.947 79.864 249.623 79.96 249.167 79.96Z" fill="black"/>
<path d="M227.278 79.96H215.938C212.938 79.96 210.706 79.36 209.242 78.16C207.802 76.96 207.082 75.112 207.082 72.616V61.384C207.082 58.888 207.802 57.04 209.242 55.84C210.706 54.64 212.938 54.04 215.938 54.04H224.938C225.394 54.04 225.718 54.148 225.91 54.364C226.126 54.556 226.234 54.88 226.234 55.336V59.692C226.234 60.148 226.126 60.484 225.91 60.7C225.718 60.892 225.394 60.988 224.938 60.988H217.45C216.706 60.988 216.154 61.144 215.794 61.456C215.434 61.744 215.254 62.188 215.254 62.788V71.392C215.254 71.992 215.386 72.436 215.65 72.724C215.938 73.012 216.358 73.156 216.91 73.156H220.402V67.54C220.402 67.084 220.498 66.76 220.69 66.568C220.906 66.352 221.242 66.244 221.698 66.244H227.278C227.734 66.244 228.058 66.352 228.25 66.568C228.466 66.76 228.574 67.084 228.574 67.54V78.664C228.574 79.12 228.466 79.456 228.25 79.672C228.058 79.864 227.734 79.96 227.278 79.96Z" fill="black"/>
<path d="M188.869 79.96H183.469C183.013 79.96 182.677 79.864 182.461 79.672C182.269 79.456 182.173 79.12 182.173 78.664V55.336C182.173 54.88 182.269 54.556 182.461 54.364C182.677 54.148 183.013 54.04 183.469 54.04H187.213C187.669 54.04 188.053 54.112 188.365 54.256C188.701 54.4 189.025 54.652 189.337 55.012L196.321 63.004V55.336C196.321 54.88 196.417 54.556 196.609 54.364C196.825 54.148 197.161 54.04 197.617 54.04H203.017C203.473 54.04 203.797 54.148 203.989 54.364C204.205 54.556 204.313 54.88 204.313 55.336V78.664C204.313 79.12 204.205 79.456 203.989 79.672C203.797 79.864 203.473 79.96 203.017 79.96H197.617C197.161 79.96 196.825 79.864 196.609 79.672C196.417 79.456 196.321 79.12 196.321 78.664V74.236L190.165 66.784V78.664C190.165 79.12 190.057 79.456 189.841 79.672C189.649 79.864 189.325 79.96 188.869 79.96Z" fill="black"/>
<path d="M178.418 79.96H161.714C161.258 79.96 160.922 79.864 160.706 79.672C160.514 79.456 160.418 79.12 160.418 78.664V55.336C160.418 54.88 160.514 54.556 160.706 54.364C160.922 54.148 161.258 54.04 161.714 54.04H178.418C178.874 54.04 179.198 54.148 179.39 54.364C179.606 54.556 179.714 54.88 179.714 55.336V59.548C179.714 60.004 179.606 60.34 179.39 60.556C179.198 60.748 178.874 60.844 178.418 60.844H168.482V63.616H175.502C175.958 63.616 176.282 63.724 176.474 63.94C176.69 64.132 176.798 64.456 176.798 64.912V68.764C176.798 69.22 176.69 69.556 176.474 69.772C176.282 69.964 175.958 70.06 175.502 70.06H168.482V73.156H178.418C178.874 73.156 179.198 73.264 179.39 73.48C179.606 73.672 179.714 73.996 179.714 74.452V78.664C179.714 79.12 179.606 79.456 179.39 79.672C179.198 79.864 178.874 79.96 178.418 79.96Z" fill="black"/>
<path d="M141.778 79.96H136.198C135.742 79.96 135.406 79.864 135.19 79.672C134.998 79.456 134.902 79.12 134.902 78.664V55.336C134.902 54.88 134.998 54.556 135.19 54.364C135.406 54.148 135.742 54.04 136.198 54.04H141.778C142.234 54.04 142.558 54.148 142.75 54.364C142.966 54.556 143.074 54.88 143.074 55.336V63.148H149.086V55.336C149.086 54.88 149.182 54.556 149.374 54.364C149.59 54.148 149.926 54.04 150.382 54.04H155.962C156.418 54.04 156.742 54.148 156.934 54.364C157.15 54.556 157.258 54.88 157.258 55.336V78.664C157.258 79.12 157.15 79.456 156.934 79.672C156.742 79.864 156.418 79.96 155.962 79.96H150.382C149.926 79.96 149.59 79.864 149.374 79.672C149.182 79.456 149.086 79.12 149.086 78.664V70.672H143.074V78.664C143.074 79.12 142.966 79.456 142.75 79.672C142.558 79.864 142.234 79.96 141.778 79.96Z" fill="black"/>
<g clip-path="url(#clip0_2_264)">
<path fill-rule="evenodd" clip-rule="evenodd" d="M57.2551 70.4235L41.4158 74.5165C41.4158 74.5165 42.9879 66.8565 53.5719 64.1235C55.034 63.7465 56.3861 63.5475 57.6505 63.4645C58.0224 60.1385 58.6113 57.1695 59.2481 54.8775C59.2552 54.8515 59.2623 54.8265 59.2695 54.8005C55.7982 54.2905 53.79 51.3705 53.79 51.3705L60.8344 49.5505C61.8044 46.5565 62.7652 44.1385 63.7097 42.6795C65.6618 39.6695 70.0929 39.4225 73.4073 40.8275C72.0583 36.2875 70.7001 32.9675 69.611 30.8445C68.2243 28.1425 66.8091 29.9345 63.5935 32.5145C61.3276 34.3315 55.6036 38.2055 46.988 40.4315C38.3715 42.6575 31.4044 42.0645 28.5007 41.5815C24.3804 40.8975 22.2255 40.0285 22.4282 43.0365C22.6045 45.6905 23.2627 49.8065 24.7726 55.2415C28.0432 67.0035 38.831 89.6735 59.191 84.4335C57.7758 79.9315 57.247 75.0565 57.2551 70.4235ZM32.733 56.8125L46.77 53.1855C46.77 53.1855 46.4246 58.7155 41.1621 60.0755C35.8997 61.4355 32.733 56.8125 32.733 56.8125Z" fill="#B30237"/>
<path fill-rule="evenodd" clip-rule="evenodd" d="M108.023 54.7415C105.119 55.2225 98.1524 55.8175 89.5359 53.5915C80.9193 51.3655 75.1963 47.4925 72.9294 45.6725C69.7138 43.0925 68.2996 41.3005 66.914 44.0035C65.6913 46.3875 64.1294 50.2695 62.6194 55.7045C59.3478 67.4745 56.9352 92.3205 77.3125 97.5875C97.6858 102.851 108.48 80.1695 111.751 68.3995C113.261 62.9655 113.92 58.8495 114.098 56.1945C114.302 53.1875 112.147 54.0565 108.023 54.7415ZM67.7576 64.2875C67.7576 64.2875 70.9242 59.6645 76.1877 61.0245C81.4532 62.3845 81.7976 67.9135 81.7976 67.9135L67.7576 64.2875ZM80.6035 85.7435C70.0205 83.0075 68.4474 75.3455 68.4474 75.3455L96.5233 82.5995C96.5233 82.5995 91.0784 88.4465 80.6035 85.7435ZM88.8135 69.7255C88.8135 69.7255 91.9812 65.1035 97.2426 66.4655C102.506 67.8245 102.852 73.3525 102.852 73.3525L88.8135 69.7255Z" fill="#FF7E07"/>
</g>
<defs>
<clipPath id="clip0_2_264">
<rect width="91.6981" height="69" fill="white" transform="translate(22.4151 29.5)"/>
</clipPath>
</defs>
</svg>
